<svg width="97" height="46" viewBox="0 0 97 46" fill="none" xmlns="http://www.w3.org/2000/svg"><path fill-rule="evenodd" clip-rule="evenodd" d="M71.8981 19.9177C72.1051 19.9434 72.3122 19.9663 72.5192 19.9913C72.6436 20.2652 72.7078 20.5621 72.7078 20.8625C72.7078 21.1629 72.6436 21.4599 72.5192 21.7337C71.3398 22.8183 70.0238 23.7464 68.6039 24.495C69.116 22.7571 70.405 20.7266 71.8981 19.9169V19.9177ZM37.4886 19.5905C37.6896 19.5627 37.8943 19.6013 38.0711 19.7003C38.2878 20.1921 38.3264 20.7432 38.1802 21.26C37.709 22.2561 35.3855 23.4864 34.4155 24.1333L34.2671 24.0979V24.0633C34.818 22.2637 35.9484 20.6932 37.4849 19.5928L37.4886 19.5905ZM13.5025 7.89919C8.03325 11.3899 4.72276 15.1708 1.54511 20.9336C-0.193626 24.0972 -0.813277 28.7873 1.54511 31.7261C2.35424 32.6292 3.37413 33.3215 4.51538 33.7422C5.65664 34.163 6.88441 34.2995 8.09114 34.1397C8.42731 30.9658 11.8447 29.5874 14.1919 31.7689C17.0465 29.6534 19.5305 27.0853 21.5439 24.1679C22.294 22.9403 23.1263 21.764 24.0351 20.647C24.6468 20.8866 25.2244 21.2046 25.753 21.593C25.7055 22.2863 24.7883 23.4901 24.4351 24.0243C23.611 25.3551 22.9245 26.7653 22.3862 28.2333C22.0797 29.0304 21.6441 30.274 22.0626 31.2487C22.3457 31.6886 22.7724 32.0186 23.2712 32.1837C23.77 32.3488 24.3108 32.3389 24.8032 32.1557C26.8328 31.4838 28.2376 30.1016 29.8093 28.9619C29.9221 29.3015 30.032 29.6404 30.1411 29.9764C30.513 30.6993 31.068 31.3137 31.7514 31.7593C32.5105 32.2129 33.39 32.4282 34.2745 32.3767C37.7928 32.3767 39.2006 30.1002 41.1122 28.4882H41.1501V28.6716C40.8985 29.2942 40.3211 30.2357 40.5638 31.1029C40.6728 31.402 40.8545 31.6698 41.0928 31.8825C41.3311 32.0951 41.6186 32.246 41.9298 32.3218C42.241 32.3975 42.5663 32.3957 42.8766 32.3166C43.187 32.2375 43.4729 32.0835 43.7088 31.8683C44.2819 31.1167 44.7835 30.3139 45.2071 29.4702C46.6 27.3993 47.9677 25.3622 49.4838 23.4444C50.0477 22.6127 50.7684 21.8971 51.6062 21.3374C51.6431 21.3462 51.6793 21.3578 51.7146 21.372C50.6791 23.9024 49.6436 26.4319 48.6081 28.9604C48.0545 30.3602 48.2141 31.7372 49.4141 32.3376C49.8063 32.5479 50.2636 32.605 50.6961 32.4977C51.1286 32.3904 51.5051 32.1265 51.7517 31.7578C52.0322 31.2136 52.3127 30.6687 52.5932 30.123C53.8374 28.2924 55.0797 26.4636 56.32 24.6365C57.0391 23.8025 57.7575 22.967 58.4825 22.1316C58.7251 21.9378 58.9701 21.7455 59.2075 21.5518C59.3315 21.537 59.4546 21.5274 59.5786 21.5127C58.5782 24.0176 57.5774 26.525 56.576 29.0348C55.9675 30.6483 56.5189 32.0975 58.0454 32.5513C59.9459 33.126 62.2679 30.7198 63.3076 30.0118C63.6378 29.7907 63.8345 29.4224 64.3354 29.359V29.4327C64.436 29.8582 64.5812 30.272 64.7688 30.6675C65.4988 31.6643 66.5684 32.3644 67.7789 32.6377C68.9894 32.9109 70.2587 32.7389 71.3512 32.1535C73.1187 31.129 74.6994 29.8156 76.0264 28.2686C77.1901 27.1393 78.2671 25.9252 79.2486 24.6365C79.7302 23.9602 81.0734 21.5311 81.6233 21.1826C82.2503 21.3472 82.8273 21.6613 83.3041 22.0977C83.1356 22.7764 82.796 23.4013 82.3171 23.9137C81.2431 25.4278 80.3234 27.044 79.5714 28.7387C78.8746 30.4928 79.1113 31.9332 80.7439 32.552C81.2869 32.7056 81.8576 32.7366 82.4143 32.6428C82.9709 32.549 83.4994 32.3327 83.9609 32.0098C85.9119 30.8968 87.6355 29.4304 89.042 27.6866C89.5207 27.0861 91.0568 25.1559 89.885 24.3469C89.0005 24.3587 88.3734 25.4955 87.9437 26.0193C87.359 26.7369 84.7527 28.802 83.7041 28.9597C83.6801 28.9465 83.6553 28.9347 83.6299 28.9243C83.5943 28.8632 83.5557 28.802 83.5231 28.7387C83.578 27.6512 85.1445 25.5036 85.6796 24.6733C86.0187 24.0058 86.3616 23.3472 86.7037 22.6738C87.2024 21.8155 87.851 20.5196 87.0309 19.5176C86.3586 18.6888 84.001 18.0839 82.9375 17.5564C82.6281 17.3612 82.3275 17.1674 82.0233 16.9751C81.7264 16.6311 81.8749 16.1072 81.4341 15.8847C80.4137 15.3418 79.164 16.8373 78.9911 17.521C78.7499 18.4493 79.3488 19.5331 79.1677 20.0996C78.922 20.6823 78.6028 21.2316 78.2178 21.7345C76.7336 23.9749 75.311 26.2175 73.2116 27.8391C72.4888 28.3931 70.0681 29.9491 68.8266 28.8521C68.6393 28.7108 68.4953 28.5205 68.4106 28.3026C68.326 28.0847 68.304 27.8477 68.3472 27.6181C68.7754 27.0353 69.4796 26.8032 70.0317 26.3472C71.6413 25.0034 74.8212 23.6655 75.9166 22.0225C76.1601 21.6427 76.3143 21.2132 76.3675 20.766C76.4207 20.3188 76.3716 19.8654 76.2239 19.4397C76.0762 19.0139 75.8337 18.6267 75.5144 18.3069C75.1951 17.9871 74.8072 17.7429 74.3797 17.5925C72.9696 17.2075 71.4644 17.3772 70.1772 18.0662C67.5798 19.4034 65.8367 21.7905 64.7666 24.6387C64.4771 25.402 64.3807 26.4179 63.8872 26.9963C63.3956 27.4297 62.857 27.8075 62.2813 28.1227C61.9451 28.3666 61.226 29.0068 60.7459 28.9228C60.7904 28.2846 60.9775 27.6643 61.2935 27.1068C62.0965 25.0741 62.9447 23.1932 63.6683 21.1812C64.092 20.0208 64.7072 18.5672 63.5607 17.6986C62.5796 16.9545 60.9514 17.4326 60.1247 17.9196C58.6844 18.8081 57.4101 19.9378 56.3586 21.2585C56.038 21.6534 55.1334 23.0518 54.7119 23.1858V23.0385C55.4499 21.8387 56.0156 20.5426 56.3927 19.1875C56.6644 18.0353 55.0295 16.9037 53.7954 17.1902C51.5431 17.7185 49.4096 20.0842 48.1629 21.6939C47.7035 22.2723 47.2382 22.8558 46.7737 23.4385C46.7485 23.4246 46.7269 23.4128 46.6995 23.4002V23.3634C47.452 22.038 48.0294 20.6219 48.4174 19.15C48.7736 17.5056 47.0163 16.9147 45.5322 17.1563C45.3229 17.1652 45.1151 17.1777 44.9103 17.1902C44.1889 17.5019 43.6769 21.0596 43.2651 21.985C42.9801 22.6112 42.8354 23.4643 42.4962 24.0913C41.9886 25.0247 39.5954 26.9823 38.6574 27.6144C37.9331 28.1014 35.2296 29.7244 34.2315 28.3799C34.1009 28.2316 34.004 28.0571 33.9474 27.8683C33.8908 27.6795 33.8758 27.4809 33.9035 27.2858C35.4337 25.6996 37.916 24.7219 39.6399 23.2941C40.2888 22.8899 40.8798 22.4007 41.3972 21.8398C41.684 21.4501 41.8717 20.9973 41.9443 20.52C42.017 20.0428 41.9724 19.5552 41.8145 19.0987C41.6565 18.6422 41.3898 18.2303 41.037 17.8982C40.6842 17.566 40.2559 17.3234 39.7883 17.191C38.2106 16.6495 36.4266 17.356 35.4738 17.9174C32.9863 19.4252 31.1303 21.7732 30.2464 24.5304C30.0409 25.1684 29.8316 25.8094 29.6268 26.454C29.3374 26.9653 27.8205 27.7522 27.2476 28.0859C26.8818 28.301 26.2221 28.8285 25.6751 28.5965C25.73 27.7617 26.4261 26.9977 26.7757 26.3811C27.586 24.929 28.4647 23.5712 29.1838 22.0969C29.5348 21.383 30.2724 20.0392 29.5511 19.1161C28.714 18.0434 26.6851 17.759 25.4577 17.0842C25.0956 16.8816 24.5115 16.6524 24.326 16.284C24.093 15.828 24.2369 15.5208 23.7783 15.3005C22.4567 14.9461 21.5171 16.298 21.3294 17.261C21.1632 18.1067 21.742 18.9687 21.6589 19.3725C21.4533 19.7718 21.2441 20.1696 21.0348 20.5675C18.6987 24.1967 15.7548 27.5253 11.6421 29.3944C9.76606 30.2431 7.1895 30.8163 5.28008 29.5763C3.23338 28.2502 3.24228 25.6333 4.0341 23.04C5.22146 19.1603 8.90003 15.1568 11.7482 12.8309C12.8043 11.9357 14.0211 11.2463 15.3347 10.799C15.8453 10.6369 16.8108 10.564 17.1262 10.9795C18.0545 12.2099 15.6093 13.995 15.5136 14.9749C16.2045 16.3887 18.5414 14.8069 19.1373 14.3604C20.5925 13.2634 22.3802 10.0947 20.7832 7.89477C19.3777 5.95862 15.1878 6.81913 13.5062 7.89477L13.5025 7.89919Z" fill="white"/><path fill-rule="evenodd" clip-rule="evenodd" d="M90.4891 27.8046C91.2624 27.7803 92.8349 27.4642 93.7231 29.0371C93.6 29.1152 93.4219 29.2324 93.0694 29.4497C86.6792 33.5423 79.7432 36.7265 72.4636 38.9095C57.4962 43.4441 33.4872 45.5579 19.4994 38.645C16.5503 37.1907 14.4813 35.5573 13.5745 33.605C12.2387 30.7059 8.9668 32.4748 10.0822 34.8928C11.1975 37.3108 13.475 39.4458 16.8449 41.2214C31.3158 48.8511 56.6413 46.2357 72.1081 41.0807C78.3247 39.0097 88.8795 34.2894 93.9042 29.4173C94.204 30.2039 94.3605 31.0371 94.3665 31.878C95.5405 31.8043 96.0229 31.265 96.0348 30.5732V30.5136C96.0014 28.7115 92.8883 25.976 90.4891 27.8046Z" fill="white"/><path fill-rule="evenodd" clip-rule="evenodd" d="M81.4414 0V13.8272H79.7576V0H81.4414ZM34.1817 0H32.4949V4.96195C32.1134 4.45565 31.6186 4.04429 31.0496 3.76027C30.4806 3.47626 29.8529 3.32739 29.216 3.32539C28.5791 3.32339 27.9504 3.46831 27.3796 3.74874C26.8088 4.02917 26.3114 4.43743 25.9266 4.94133C25.1418 6.0427 24.7328 7.36459 24.7593 8.71345C24.7081 9.98294 25.0664 11.2355 25.7819 12.2889C26.1552 12.8325 26.659 13.2753 27.2479 13.577C27.8368 13.8788 28.4922 14.0301 29.1548 14.0172C29.8633 14.0548 30.5673 13.8847 31.1794 13.5283C31.7914 13.1719 32.2845 12.6449 32.5973 12.0126H32.6263V13.8264H34.1847L34.1817 0ZM75.0973 7.47793V7.04915C75.1321 6.70033 75.0926 6.34814 74.9813 6.01547C74.8701 5.68279 74.6896 5.37706 74.4516 5.11815C73.8374 4.67124 73.0793 4.46362 72.3211 4.53464C70.5771 4.53464 69.5756 5.14859 69.3163 6.3765L67.7252 6.09727C67.7827 5.63967 67.9599 5.20496 68.239 4.83635C68.5181 4.46774 68.8895 4.17806 69.3163 3.99609C70.2955 3.53536 71.369 3.30637 72.4524 3.32713C74.0934 3.32713 75.2289 3.65498 75.8586 4.31068C76.2371 4.6939 76.495 5.17826 76.6007 5.7046C76.7111 6.35416 76.7623 7.01227 76.7536 7.67095V11.6707C76.7269 12.3989 76.8148 13.1267 77.0141 13.8279H75.3228L75.1002 11.9124C74.7421 12.6002 74.1866 13.1671 73.504 13.5414C72.8213 13.9156 72.0421 14.0805 71.2651 14.015C70.2829 14.0503 69.3169 13.76 68.5193 13.1899C68.1622 12.9258 67.8757 12.5789 67.6849 12.1794C67.4941 11.78 67.4048 11.3402 67.4247 10.8986C67.4274 10.2943 67.6248 9.70675 67.9879 9.2218C68.3614 8.70375 68.8764 8.30264 69.4721 8.06586C70.8306 7.5919 72.2707 7.39153 73.708 7.47646L75.0973 7.47793ZM75.0973 8.68472H73.708C70.7565 8.68472 69.2799 9.45486 69.2785 10.9951C69.2678 11.2594 69.3257 11.5219 69.4467 11.7575C69.5677 11.9931 69.7477 12.1938 69.9694 12.3404C70.459 12.6633 71.0374 12.8275 71.625 12.8105C72.2615 12.8248 72.8888 12.6578 73.4327 12.3294C73.9506 12.0177 74.3748 11.5737 74.6609 11.0438C74.9502 10.519 75.1003 9.92979 75.0973 9.33157V8.68472ZM66.0073 13.9193L64.3561 14.0172C63.9151 14.0659 63.4687 14.0145 63.0507 13.8668C62.6326 13.7192 62.2538 13.4791 61.9428 13.1648C61.4328 12.4417 61.1888 11.5663 61.2519 10.6857V4.77557H59.2987V3.47889H61.2519V0.952606L62.9358 0.794951V3.47889H65.3787V4.77557H62.9372V10.9333C62.8961 11.4299 63.0316 11.9252 63.3202 12.3331C63.503 12.4999 63.7198 12.6257 63.9559 12.702C64.192 12.7783 64.4419 12.8032 64.6886 12.7751L66.0088 12.6499L66.0073 13.9193ZM50.5717 5.48283H50.6021C50.9134 4.84232 51.3954 4.29861 51.9958 3.91062C52.6058 3.5208 53.3178 3.3174 54.0432 3.32566C54.6566 3.29945 55.2661 3.43368 55.8107 3.7149C56.3554 3.99613 56.8161 4.41449 57.1467 4.92807C57.5885 5.94604 57.772 7.05612 57.681 8.16089V13.8264H55.9957V7.48309C56.047 6.84096 55.9453 6.19586 55.6988 5.59998C55.4965 5.30506 55.215 5.0723 54.8862 4.92807C54.5404 4.76389 54.1624 4.67712 53.779 4.67389C53.3519 4.6652 52.9283 4.75285 52.5402 4.93024C52.1522 5.10763 51.8097 5.37012 51.5386 5.69796C50.9134 6.47137 50.6043 7.45002 50.6726 8.43937V13.8257H48.9524V3.57026H50.5739L50.5717 5.48283ZM44.5221 7.63117C44.5531 6.82248 44.2817 6.031 43.76 5.40916C43.4841 5.11301 43.1458 4.88099 42.7692 4.72969C42.3925 4.57839 41.9869 4.51154 41.5812 4.53391C41.1714 4.52311 40.764 4.59965 40.3864 4.75839C40.0089 4.91712 39.6701 5.15435 39.3927 5.4541C38.8242 6.0409 38.4957 6.8166 38.471 7.63044L44.5221 7.63117ZM46.2134 10.9885C45.9025 11.9126 45.2738 12.6985 44.4375 13.2083C43.5714 13.7493 42.5665 14.0307 41.5433 14.0187C40.8474 14.057 40.1516 13.9401 39.5071 13.6766C38.8626 13.4131 38.2857 13.0097 37.8187 12.4959C36.9145 11.4449 36.4381 10.0965 36.483 8.71492C36.4796 8.01708 36.5947 7.32367 36.8236 6.66384C37.0462 6.03239 37.3871 5.44844 37.8284 4.9428C38.273 4.43883 38.8207 4.03472 39.435 3.75739C40.11 3.46294 40.841 3.31644 41.5782 3.32787C42.31 3.31204 43.0364 3.45537 43.7065 3.74781C44.2923 4.00895 44.8068 4.40527 45.2071 4.90376C45.6025 5.42399 45.8986 6.01181 46.0805 6.63805C46.2803 7.35304 46.3783 8.0923 46.3714 8.83428H38.4132C38.3748 9.63178 38.532 10.4266 38.871 11.1506C39.1334 11.6402 39.5377 12.0403 40.0317 12.2992C40.5346 12.5796 41.1015 12.7275 41.6784 12.7287C42.3297 12.7442 42.9696 12.5563 43.5077 12.1916C44.0253 11.8257 44.4145 11.3081 44.6208 10.7115L46.2134 10.9885ZM32.4912 7.73431C32.5296 7.01965 32.3221 6.31327 31.9028 5.73112C31.6497 5.35226 31.2914 5.05438 30.8712 4.87355C30.4273 4.66777 29.943 4.56185 29.4531 4.56338C29.0011 4.55838 28.5563 4.6763 28.167 4.90435C27.7777 5.1324 27.4587 5.46189 27.2446 5.8571C26.7652 6.6545 26.5329 7.57438 26.5767 8.502C26.5561 9.51758 26.7738 10.524 27.2127 11.4416C27.4008 11.8497 27.7096 12.1913 28.098 12.421C28.4864 12.6506 28.936 12.7574 29.387 12.7272C29.8671 12.7434 30.3435 12.6385 30.7717 12.4225C31.2 12.2064 31.5661 11.8862 31.836 11.4917C32.2897 10.877 32.5218 10.1286 32.4949 9.36693L32.4912 7.73431Z" fill="white"/></svg>