<svg width="508" height="204" viewBox="0 0 508 204" fill="none" xmlns="http://www.w3.org/2000/svg"><path d="M489.199 167.732C486.848 168.32 483.909 168.32 479.794 168.32C471.563 168.32 469.8 162.438 469.8 154.203V145.38C469.8 137.145 471.563 131.263 479.794 131.263C482.733 131.263 486.26 131.263 489.199 131.851V167.732ZM507.424 177.143V104.793C507.424 103.617 506.248 102.44 505.072 102.44H491.551C490.375 102.44 489.199 103.617 489.199 104.793V117.146C485.672 116.558 482.145 116.558 479.794 116.558C460.394 116.558 451.576 127.734 451.576 145.968V154.791C451.576 173.026 461.57 184.202 479.794 184.202C488.612 184.202 497.43 183.025 503.896 181.261C506.836 180.084 507.424 178.908 507.424 177.143ZM427.473 144.203H406.897V143.615C406.897 135.38 411.013 130.675 416.891 130.675C423.946 131.263 427.473 135.38 427.473 144.203ZM445.109 153.027V146.556C445.109 129.498 435.703 116.558 417.479 116.558C399.843 116.558 389.261 128.322 389.261 146.556V154.791C389.261 176.555 403.958 184.202 417.479 184.202C427.473 184.202 433.352 183.025 440.406 181.261C442.17 180.673 442.758 180.084 442.758 178.32V169.497C442.758 168.32 441.582 167.732 440.406 167.732H439.818C435.115 168.32 425.709 168.908 418.655 168.908C409.837 168.908 406.897 163.026 406.897 156.556H442.758C444.521 155.38 445.109 154.791 445.109 153.027ZM303.432 154.203C303.432 162.438 301.669 168.32 293.438 168.32C290.499 168.32 286.972 167.732 284.032 167.732V132.439C286.384 131.851 289.323 131.851 293.438 131.851C301.669 131.851 303.432 137.733 303.432 145.968V154.203ZM321.656 154.203V145.38C321.656 127.145 311.662 115.969 293.438 115.969C284.62 115.969 275.802 117.146 269.336 118.91C266.396 119.499 265.808 120.675 265.808 122.44V198.907C265.808 200.084 266.984 201.26 268.16 201.26H281.681C282.857 201.26 284.032 200.084 284.032 198.907V182.437C287.56 183.025 291.087 183.025 293.438 183.025C312.25 183.614 321.656 172.438 321.656 154.203ZM258.166 164.203C258.166 158.321 255.815 152.438 246.996 146.556L235.239 138.321C232.888 137.145 231.712 135.969 231.712 134.204C231.712 131.851 233.475 130.675 237.591 130.675C243.469 130.675 252.875 131.851 255.815 132.439H256.402C257.578 132.439 258.166 131.851 258.166 130.086V120.675C258.166 119.499 257.578 118.322 255.815 118.322C249.936 116.558 245.233 115.969 236.415 115.969C221.13 115.969 214.076 121.851 214.076 133.616C214.076 141.262 218.191 146.556 224.069 150.674L236.415 159.497C239.354 161.262 240.53 162.438 240.53 164.203C240.53 167.144 239.354 168.908 234.063 168.908C230.536 168.908 222.894 168.32 217.015 167.144H216.427C215.251 167.144 214.076 168.32 214.076 169.497V178.908C214.076 180.084 214.664 181.261 216.427 181.261C222.306 183.025 228.772 183.614 234.651 183.614C251.112 183.614 258.166 175.379 258.166 164.203ZM366.334 144.203H345.759V143.615C345.759 135.38 349.874 130.675 355.753 130.675C362.807 131.263 366.334 135.38 366.334 144.203ZM383.971 153.027V146.556C383.971 129.498 374.565 116.558 356.341 116.558C338.704 116.558 328.123 128.322 328.123 146.556V154.791C328.123 176.555 342.819 184.202 356.341 184.202C366.334 184.202 372.213 183.025 379.268 181.261C381.031 180.673 381.619 180.084 381.619 178.32V169.497C381.619 168.32 380.443 167.732 379.268 167.732H378.68C373.977 168.32 363.983 168.908 357.516 168.908C348.698 168.908 345.759 163.026 345.759 156.556H381.619C383.383 155.38 383.971 154.791 383.971 153.027Z" fill="white"/><path d="M100.62 0.0935733C127.074 1.27 151.176 13.0342 167.637 31.2688C184.685 49.5034 194.091 77.7376 192.915 100.678C192.327 110.677 190.564 121.853 187.624 130.677C187.037 131.853 186.449 133.618 185.861 134.794C184.097 139.5 181.746 142.441 178.806 146.558L192.915 203.027C192.915 203.027 144.71 194.792 122.371 188.91C120.607 189.498 118.844 190.086 117.668 190.086C109.438 191.851 101.207 193.027 92.3893 192.439C65.9351 191.263 41.8324 179.498 25.372 161.264C8.91159 143.617 -1.08222 118.912 0.0935191 92.4429C1.26926 65.9733 13.0267 42.4448 31.2507 25.3867C49.4747 8.91676 74.1653 -1.08285 100.62 0.0935733ZM100.032 34.2099C82.9834 33.6217 67.1108 40.092 55.3534 50.6798C43.596 61.2676 35.9537 76.5611 35.3658 93.6193C34.7779 110.677 40.6566 126.559 51.8262 138.323C62.4079 150.088 77.6925 157.734 95.3287 158.323C101.207 158.323 106.498 158.323 111.789 156.558C112.965 155.97 114.141 155.97 114.728 155.97C115.316 155.97 116.492 155.382 117.668 154.793L121.783 153.617L125.898 154.793C133.54 156.558 142.358 158.911 150.001 160.087L145.886 144.794L144.122 137.735L148.237 131.853C151.176 127.736 153.528 123.618 155.292 118.912C155.879 118.324 155.879 117.148 156.467 115.971C158.231 110.089 159.407 104.207 159.995 97.7368C160.582 80.6786 154.704 64.7969 143.534 53.0327C132.365 42.4448 117.08 34.7981 100.032 34.2099Z" fill="white"/><path d="M248.761 46.5587C245.821 45.9705 242.294 45.9705 239.942 45.9705C232.3 45.9705 229.949 51.8526 229.949 59.4993V68.3225C229.949 75.9693 231.712 81.8514 239.942 81.8514C243.47 81.8514 246.997 81.2632 248.761 81.2632V46.5587ZM263.457 94.2039C256.991 95.9685 248.173 97.1449 239.942 97.1449C221.718 97.1449 212.312 86.5571 212.312 68.9107V60.0875C212.312 42.4412 221.131 31.8534 239.942 31.8534C242.294 31.8534 245.821 32.4416 248.761 32.4416V13.0306C248.761 11.8542 249.936 10.6777 251.112 10.6777H264.633C265.809 10.6777 266.985 11.8542 266.985 13.0306V90.6746C266.985 92.4392 266.397 93.6156 263.457 94.2039Z" fill="white"/><path d="M309.898 58.3222C309.898 50.0873 306.371 45.9698 299.904 45.9698C294.026 45.9698 289.911 50.0873 289.911 58.3222V58.9104L309.898 58.3222ZM325.183 69.4983H289.911C289.911 75.9686 292.85 81.8507 301.08 81.8507C308.135 81.8507 318.128 81.2625 322.243 80.6743H322.831C324.007 80.6743 325.183 81.2625 325.183 82.4389V90.6739C325.183 92.4385 324.595 93.0267 322.831 93.615C315.777 95.3796 309.898 96.556 299.904 96.556C286.383 96.556 272.274 89.4975 272.274 67.7336V60.0869C272.274 42.4405 282.856 30.6763 300.492 30.6763C318.716 30.6763 328.122 43.0287 328.122 60.0869V66.5572C327.534 68.9101 326.359 69.4983 325.183 69.4983Z" fill="white"/><path d="M384.559 95.969H371.038C369.862 95.969 368.687 94.7925 368.687 93.6161V56.5587C368.687 48.912 367.511 45.9709 360.457 45.9709C357.517 45.9709 353.99 47.7356 349.875 49.5002V93.0279C349.875 94.2043 348.699 95.3808 347.523 95.3808H334.002C332.827 95.3808 331.651 94.2043 331.651 93.0279V34.2067C331.651 33.0303 332.827 31.8538 334.002 31.8538H346.936C348.111 31.8538 349.287 33.0303 349.287 34.2067V37.1477C355.166 33.0303 360.457 31.2656 367.511 31.2656C383.384 31.2656 386.911 42.4417 386.911 56.5587V93.6161C386.911 94.7925 385.735 95.969 384.559 95.969Z" fill="white"/><path d="M428.06 95.9687C424.533 96.5569 422.769 97.1451 419.242 97.1451C406.896 97.1451 400.43 94.2041 400.43 78.3223V45.9707L391.612 44.7943C390.436 44.7943 389.26 43.6178 389.26 42.4414V34.7946C389.26 33.6182 390.436 32.4418 391.612 32.4418H400.43V23.0304C400.43 21.854 401.606 21.2658 402.781 20.6776L416.302 18.3247H416.89C418.066 18.3247 418.654 18.9129 418.654 20.0893V31.8536H427.472C428.648 31.8536 429.823 33.03 429.823 34.2064V43.0296C429.823 44.206 428.648 45.3825 427.472 45.3825H418.654V77.7341C418.654 82.4398 419.242 83.028 422.181 83.028H427.472C428.648 83.028 429.823 83.6162 429.823 84.7927V93.6159C430.411 94.7923 429.236 95.9687 428.06 95.9687Z" fill="white"/><path d="M465.097 68.9112H458.63C450.988 68.9112 448.637 71.8523 448.637 77.1462V78.3226C448.637 83.0283 450.988 83.6165 455.691 83.6165C459.218 83.6165 462.158 82.4401 464.509 81.2637V68.9112H465.097ZM480.382 95.969H468.036C466.861 95.969 465.685 94.7925 465.685 93.6161V91.8515C461.57 94.7925 456.867 97.1454 450.4 97.1454C440.994 97.1454 431.588 92.4397 431.588 78.3226V76.558C431.588 63.6173 439.819 57.7352 458.63 57.7352H464.509V54.2059C464.509 47.7356 461.57 46.5591 456.279 46.5591C449.224 46.5591 441.582 47.1474 438.055 47.1474H437.467C436.291 47.1474 435.703 46.5591 435.703 45.3827V35.9713C435.703 34.7949 436.291 33.6185 438.055 33.6185C442.17 32.442 449.812 31.2656 457.455 31.2656C473.327 31.2656 483.321 37.736 483.321 54.2059V93.6161C482.733 94.7925 481.557 95.969 480.382 95.969Z" fill="white"/><path d="M505.072 95.9685H491.551C490.375 95.9685 489.2 94.7921 489.2 93.6156V13.0306C489.2 11.8542 490.375 10.6777 491.551 10.6777H505.072C506.248 10.6777 507.424 11.8542 507.424 13.0306V93.6156C507.424 94.7921 506.248 95.9685 505.072 95.9685Z" fill="white"/></svg>