<svg width="104" height="25" viewBox="0 0 104 25" fill="none" xmlns="http://www.w3.org/2000/svg">
<path d="M54.6523 21.1729H69.9656C70.5076 21.1729 70.947 21.6051 70.947 22.1384V25.0008H55.6337C55.0917 25.0008 54.6523 24.5686 54.6523 24.0353V21.1729Z" fill="#ffffff"/>
<path d="M54.6543 16.0872V12.2495H69.9663C70.5083 12.2495 70.9477 12.6818 70.9477 13.215V16.0872H54.6543Z" fill="#ffffff"/>
<path d="M0.981395 3.33691H3.90858V21.164H16.0116V25.0004H0V4.30244C0 3.76918 0.439372 3.33691 0.981395 3.33691Z" fill="#ffffff"/>
<path d="M37.7148 24.9808H34.2456C33.8311 24.9808 33.4616 24.7248 33.3217 24.3414L27.2954 7.80471H26.9809L21.3541 24.3221C21.22 24.7158 20.8454 24.9808 20.4237 24.9808H16.9453L24.3597 3.95678C24.4996 3.5734 24.869 3.31738 25.2836 3.31738H28.96C29.3634 3.31738 29.7257 3.56053 29.8734 3.92976L37.7154 24.9808H37.7148Z" fill="#ffffff"/>
<path d="M43.8912 25.0004H40.9555V16.3351L33.5273 3.33691H37.4085C37.7635 3.33691 38.0911 3.52539 38.2643 3.83029L44.8725 15.4371V24.0348C44.8725 24.5681 44.4332 25.0004 43.8912 25.0004Z" fill="#ffffff"/>
<path d="M43.8444 9.89487L47.6686 3.79941C47.8465 3.51188 48.1642 3.33691 48.5062 3.33691H52.5782L46.1086 13.5466L43.8438 9.89487H43.8444Z" fill="#ffffff"/>
<path d="M74.8497 13.8901H83.1592C85.7072 13.8901 87.3431 12.5592 87.3431 10.2692C87.3431 8.13365 85.9589 7.16491 83.1278 7.16491H54.1875V4.30244C54.1875 3.76918 54.6269 3.33691 55.1689 3.33691H83.5999C88.5703 3.33691 91.338 5.81279 91.338 10.1766C91.338 12.4975 90.1428 15.3451 87.4686 16.6445L92.5959 25.0004H88.061L83.6941 17.356H78.7551V24.0348C78.7551 24.5681 78.3157 25.0004 77.7737 25.0004H74.8497V13.8901Z" fill="#ffffff"/>
<path d="M98.1431 0C95.4604 0 93.2852 2.13946 93.2852 4.77936C93.2852 7.41927 95.4598 9.55873 98.1431 9.55873C100.826 9.55873 103.001 7.41927 103.001 4.77936C103.001 2.13946 100.826 0 98.1431 0ZM98.1431 8.55976C96.0208 8.55976 94.3006 6.86736 94.3006 4.77936C94.3006 2.69137 96.0208 0.998971 98.1431 0.998971C100.265 0.998971 101.986 2.69137 101.986 4.77936C101.986 6.86736 100.265 8.55976 98.1431 8.55976Z" fill="#ffffff"/>
<path d="M95.6882 5.26476V3.36523H96.2629V5.17985C96.2629 5.60504 96.5479 5.82182 96.9625 5.82182C96.9625 5.91123 96.9579 6.38273 96.9579 6.38273C96.2583 6.38273 95.6875 6.02573 95.6875 5.26476H95.6882Z" fill="#ffffff"/>
<path d="M96.9362 6.38209C96.9362 6.38209 96.9316 5.91059 96.9316 5.82118C97.3462 5.82118 97.6312 5.6044 97.6312 5.17921V4.76367H98.2059V5.26412C98.2059 6.02509 97.6358 6.38209 96.9356 6.38209H96.9362Z" fill="#ffffff"/>
<path d="M98.2056 3.36475H97.6328V4.82943H98.2056V3.36475Z" fill="#ffffff"/>
<path d="M99.366 5.35548V6.37311H98.7769V4.8486H99.653C100.033 4.8486 100.238 4.66398 100.238 4.35072C100.238 4.03746 100.068 3.87407 99.6484 3.87407H98.7324V3.36719H99.7485C100.578 3.36719 100.857 3.79238 100.857 4.33335C100.857 4.87433 100.534 5.35548 99.7485 5.35548H99.366Z" fill="#ffffff"/>
</svg>
