<svg width="19" height="19" viewBox="0 0 19 19" fill="none" xmlns="http://www.w3.org/2000/svg">
<path d="M6.9192 12.8386C5.40344 12.8386 3.88769 12.2636 2.7378 11.1007C0.424965 8.80092 0.424965 5.03766 2.7378 2.73789C3.86155 1.61414 5.33811 1 6.9192 1C8.50029 1 9.98991 1.61414 11.1006 2.73789C12.2243 3.86164 12.8385 5.3382 12.8385 6.91929C12.8385 8.50038 12.2243 9.99001 11.1006 11.1007C9.97685 12.2114 8.43496 12.8386 6.9192 12.8386ZM6.9192 1.65334C5.50798 1.65334 4.18822 2.20215 3.19514 3.19523C1.14364 5.24673 1.14364 8.59185 3.19514 10.6434C5.24664 12.6948 8.59176 12.6948 10.6433 10.6434C11.6363 9.65027 12.1852 8.33051 12.1852 6.91929C12.1852 5.50807 11.6363 4.18832 10.6433 3.19523C9.65018 2.20215 8.33042 1.65334 6.9192 1.65334Z" fill="#2196F3" stroke="#2196F3"/>
<path d="M16.0007 18C16.0007 18 15.9615 18 15.9354 18C15.2821 17.9869 14.6418 17.6733 14.1844 17.1637L9.53264 11.95C9.41504 11.8193 9.42811 11.6103 9.55877 11.4927C9.68944 11.3751 9.89851 11.3881 10.0161 11.5188L14.6679 16.7325C15.0077 17.1114 15.4781 17.3466 15.9615 17.3597C16.3405 17.3597 16.7064 17.229 16.9677 16.9807C17.229 16.7194 17.3597 16.3666 17.3466 15.9746C17.3336 15.5042 17.1114 15.0338 16.7194 14.694L11.5057 10.0422C11.3751 9.92464 11.362 9.71557 11.4796 9.5849C11.5972 9.45423 11.8063 9.44116 11.9369 9.55876L17.1506 14.2106C17.6602 14.6679 17.9738 15.3082 17.9869 15.9615C18 16.5365 17.804 17.0591 17.412 17.4512C17.02 17.8432 16.5365 18.0261 15.9877 18.0261L16.0007 18Z" fill="#2196F3" stroke="#2196F3"/>
</svg>
