<svg width="162" height="20" viewBox="0 0 162 20" fill="none" xmlns="http://www.w3.org/2000/svg">
<path d="M159.533 10.9184C138.883 10.7146 118.239 11.3231 97.6374 12.7323C102.18 12.0801 106.725 11.4221 111.253 10.6825C113.679 10.2866 116.1 9.85564 118.517 9.41016C121.179 8.921 123.872 8.80162 126.542 8.35906C127.585 8.18727 126.02 5.71238 125.224 5.6658C121.17 5.42704 117.105 5.31349 113.036 5.29311C114.072 5.20576 115.112 5.12132 116.151 5.04562C123.553 4.50988 130.91 4.52153 138.32 4.49823C139.492 4.49532 137.743 1.21391 136.664 1.11492C118.644 -0.518509 100.334 -0.230258 82.3078 1.15859C64.4198 2.53579 46.6439 5.2902 29.155 9.33154C19.3985 11.5881 9.67642 14.1678 0.181175 17.3997C-0.49357 17.6297 0.864534 20.3433 1.82353 19.9648C5.71409 18.8351 9.61326 17.7462 13.5182 16.7009C15.9587 16.2612 18.4251 15.9497 20.8973 15.7371C21.1787 15.7138 20.8858 15.0791 20.6044 14.8607C31.8712 12.0248 43.2271 9.61688 54.7465 7.85243C72.3301 5.15626 90.109 3.69171 107.894 3.54031C108.172 3.54031 108.451 3.54031 108.729 3.54031C105.281 3.93629 101.838 4.37303 98.4011 4.85054C96.1989 5.15626 93.9995 5.49401 91.803 5.84632C91.625 5.85505 91.447 5.86379 91.2689 5.87252C79.9906 6.4432 68.7353 7.53215 57.5432 9.06367C51.2522 9.92551 44.9843 10.9359 38.7393 12.083C37.7229 12.2694 39.236 14.7181 40.04 14.7384C46.328 14.884 52.6936 14.1386 58.9242 13.3525C65.2611 12.5547 71.552 11.4279 77.8343 10.2807C79.4537 9.98666 81.0702 9.6955 82.6896 9.41307C90.9617 8.80454 99.2539 8.44058 107.546 8.31829C110.147 8.28044 112.749 8.28044 115.347 8.29209C113.748 8.61237 112.146 8.92682 110.544 9.23255C105.559 10.1905 100.578 11.096 95.5672 11.888C90.5339 12.6857 85.4834 13.3612 80.4299 14.0076C75.3335 14.6598 70.1997 14.9772 65.106 15.6294C64.4457 15.7138 65.4018 17.5453 66.0134 17.4812C90.5684 15.0034 115.218 13.6641 139.891 13.3612C146.839 13.2768 153.788 13.2826 160.736 13.3729C161.526 13.3845 160.392 10.93 159.536 10.9213L159.533 10.9184Z" fill="#F0B242"/>
</svg>