<svg width="191" height="38" viewBox="0 0 191 38" fill="none" xmlns="http://www.w3.org/2000/svg"><path d="M23.27 0C22.194 0 20.7263 0.592936 19.313 0.93395C17.9009 1.27312 15.9311 1.46974 14.351 1.45623C17.9256 3.33273 20.2606 5.76714 20.2606 5.76714C16.8817 3.67682 8.91527 0 5.49445 0C2.87788 0 0.00495784 2.14809 1.62479e-05 5.5484C-0.00677844 10.1751 2.11934 15.6928 2.95385 19.2609C4.5296 25.9982 4.08795 36.8228 8.09064 36.8228C12.404 36.8228 11.3051 22.2249 14.4097 22.2249C17.5136 22.2249 16.5519 37.4809 20.4539 37.4809C24.3559 37.4809 25.9125 18.8879 26.8211 15.9632C27.731 13.0378 28.7644 7.25593 28.7644 5.54779C28.7644 2.87804 26.6902 0 23.27 0Z" fill="#FDFDFD"/><path d="M37.5124 27.2416V25.7987C38.8233 26.6329 40.1512 27.05 41.4961 27.05C42.9261 27.05 44.0115 26.7564 44.752 26.169C45.4926 25.5732 45.8629 24.7432 45.8629 23.6792C45.8629 22.7429 45.6117 21.998 45.1095 21.4448C44.6158 20.883 43.539 20.1211 41.8791 19.1592C40.0235 18.0782 38.8488 17.1759 38.3551 16.4524C37.8614 15.7203 37.6145 14.8776 37.6145 13.9242C37.6145 12.6304 38.1168 11.5323 39.1212 10.63C40.1256 9.72772 41.4663 9.27657 43.1432 9.27657C44.2328 9.27657 45.3223 9.45958 46.4119 9.82561V11.1535C45.3394 10.6683 44.1945 10.4257 42.9772 10.4257C41.7344 10.4257 40.747 10.7407 40.015 11.3706C39.2914 12.0005 38.9297 12.8006 38.9297 13.771C38.9297 14.7074 39.1765 15.4522 39.6702 16.0055C40.1725 16.5588 41.2492 17.3121 42.9006 18.2655C44.6116 19.2358 45.7479 20.0998 46.3097 20.8574C46.8801 21.6065 47.1652 22.4705 47.1652 23.4494C47.1652 24.8539 46.6758 25.9988 45.6969 26.8841C44.7265 27.7693 43.3518 28.212 41.5727 28.212C40.9428 28.212 40.215 28.1141 39.3893 27.9183C38.5722 27.7225 37.9465 27.4969 37.5124 27.2416Z" fill="white"/><path d="M51.0121 11.5238C50.7567 11.5238 50.5311 11.4302 50.3353 11.2429C50.1396 11.0556 50.0417 10.8173 50.0417 10.5279C50.0417 10.247 50.1396 10.0214 50.3353 9.85115C50.5396 9.67239 50.7652 9.58301 51.0121 9.58301C51.2759 9.58301 51.5058 9.66813 51.7015 9.83838C51.9058 10.0086 52.008 10.2385 52.008 10.5279C52.008 10.8003 51.9101 11.0343 51.7143 11.2301C51.5185 11.4259 51.2844 11.5238 51.0121 11.5238ZM50.4375 27.8927V14.818H51.6122V27.8927H50.4375Z" fill="white"/><path d="M71.8024 27.8927V20.0275C71.8024 18.3846 71.5428 17.2312 71.0235 16.5673C70.5128 15.9033 69.6999 15.5713 68.5848 15.5713C67.5548 15.5713 66.6653 16.014 65.9162 16.8992C65.1672 17.7845 64.7926 18.8954 64.7926 20.2318V27.8927H63.6179V19.9381C63.6179 17.0269 62.5113 15.5713 60.2982 15.5713C59.2342 15.5713 58.3489 16.0182 57.6424 16.912C56.9359 17.7973 56.5826 18.9464 56.5826 20.3595V27.8927H55.4079V14.818H56.5826V16.9886H56.6337C57.5445 15.3287 58.8766 14.4988 60.6302 14.4988C61.5835 14.4988 62.3964 14.7755 63.0689 15.3287C63.7499 15.8735 64.2095 16.5928 64.4479 17.4866C64.8565 16.5417 65.4395 15.8097 66.1971 15.2904C66.9632 14.7627 67.7932 14.4988 68.6869 14.4988C71.547 14.4988 72.9771 16.2693 72.9771 19.8104V27.8927H71.8024Z" fill="white"/><path d="M77.7432 25.5689H77.6922V33.9066H76.5175V14.818H77.6922V17.5121H77.7432C78.2114 16.5502 78.8796 15.8097 79.7479 15.2904C80.6246 14.7627 81.5865 14.4988 82.6335 14.4988C84.2934 14.4988 85.5872 15.0734 86.5151 16.2225C87.4514 17.3632 87.9196 18.9166 87.9196 20.883C87.9196 23.0706 87.3833 24.8411 86.3108 26.1946C85.2467 27.5395 83.838 28.212 82.0845 28.212C80.1267 28.212 78.6796 27.3309 77.7432 25.5689ZM77.6922 20.7042V22.3513C77.6922 23.6622 78.105 24.7901 78.9307 25.7349C79.7564 26.6712 80.8417 27.1394 82.1866 27.1394C83.523 27.1394 84.6083 26.5691 85.4425 25.4285C86.2767 24.2793 86.6938 22.7727 86.6938 20.9085C86.6938 19.2741 86.3108 17.976 85.5447 17.0142C84.7786 16.0523 83.7571 15.5713 82.4803 15.5713C80.9566 15.5713 79.7777 16.0821 78.9435 17.1035C78.1093 18.125 77.6922 19.3252 77.6922 20.7042Z" fill="white"/><path d="M90.7832 27.8927V8.53601H91.9579V27.8927H90.7832Z" fill="white"/><path d="M96.0346 21.4065C96.0346 23.2025 96.4474 24.607 97.2731 25.62C98.1073 26.6329 99.2479 27.1394 100.695 27.1394C102.159 27.1394 103.589 26.5989 104.985 25.5178V26.7691C103.632 27.731 102.121 28.212 100.452 28.212C98.767 28.212 97.4051 27.6076 96.3666 26.3989C95.3281 25.1901 94.8088 23.4834 94.8088 21.2788C94.8088 19.372 95.3494 17.7675 96.4304 16.4651C97.52 15.1542 98.933 14.4988 100.669 14.4988C102.295 14.4988 103.542 15.0691 104.411 16.2098C105.279 17.3504 105.713 18.9081 105.713 20.883V21.4065H96.0346ZM104.487 20.3339C104.436 18.8273 104.074 17.6568 103.402 16.8226C102.729 15.9884 101.802 15.5713 100.618 15.5713C99.3927 15.5713 98.3754 15.9842 97.5668 16.8099C96.7666 17.627 96.2729 18.8017 96.0857 20.3339H104.487Z" fill="white"/><path d="M107.887 27.3182V25.9009C108.33 26.2839 108.866 26.5861 109.496 26.8074C110.126 27.0288 110.671 27.1394 111.13 27.1394C113.182 27.1394 114.207 26.301 114.207 24.6241C114.207 24.0452 113.982 23.5515 113.531 23.1429C113.08 22.7344 112.348 22.313 111.335 21.8789C110.083 21.3341 109.202 20.7723 108.692 20.1935C108.189 19.6061 107.938 18.8954 107.938 18.0612C107.938 16.9971 108.343 16.1374 109.151 15.482C109.968 14.8265 110.973 14.4988 112.165 14.4988C113.288 14.4988 114.25 14.7286 115.05 15.1883V16.5162C114.08 15.8863 113.075 15.5713 112.037 15.5713C111.177 15.5713 110.483 15.7969 109.956 16.2481C109.428 16.6907 109.164 17.2695 109.164 17.9845C109.164 18.6059 109.33 19.1124 109.662 19.504C109.994 19.887 110.726 20.3297 111.858 20.8319C113.22 21.4448 114.156 22.0151 114.667 22.5428C115.178 23.0621 115.433 23.7558 115.433 24.6241C115.433 25.6626 115.042 26.5223 114.259 27.2033C113.484 27.8757 112.411 28.212 111.041 28.212C109.781 28.212 108.73 27.914 107.887 27.3182Z" fill="white"/><path d="M118.501 27.8927V9.58301H123.787C130.537 9.58301 133.912 12.558 133.912 18.508C133.912 21.3341 132.976 23.6069 131.103 25.3263C129.231 27.0373 126.72 27.8927 123.57 27.8927H118.501ZM121.527 12.1622V25.3263H123.953C126.09 25.3263 127.75 24.739 128.933 23.5643C130.125 22.3896 130.72 20.7297 130.72 18.5847C130.72 14.303 128.503 12.1622 124.068 12.1622H121.527Z" fill="white"/><path d="M147.616 22.1598H138.704C138.738 23.3685 139.109 24.3006 139.815 24.956C140.53 25.6115 141.509 25.9392 142.752 25.9392C144.148 25.9392 145.429 25.5221 146.595 24.6879V27.0756C145.403 27.8246 143.829 28.1992 141.871 28.1992C139.947 28.1992 138.436 27.6076 137.338 26.4244C136.248 25.2327 135.704 23.56 135.704 21.4065C135.704 19.372 136.304 17.7164 137.504 16.4396C138.713 15.1542 140.211 14.5116 141.998 14.5116C143.786 14.5116 145.169 15.0861 146.148 16.2353C147.127 17.3844 147.616 18.9805 147.616 21.0234V22.1598ZM144.756 20.0658C144.748 19.0018 144.497 18.1761 144.003 17.5887C143.509 16.9929 142.828 16.695 141.96 16.695C141.109 16.695 140.385 17.0056 139.789 17.627C139.202 18.2484 138.84 19.0613 138.704 20.0658H144.756Z" fill="white"/><path d="M161.691 27.8927H158.728V20.5254C158.728 18.0824 157.864 16.8609 156.136 16.8609C155.234 16.8609 154.489 17.2014 153.902 17.8824C153.315 18.5549 153.021 19.4061 153.021 20.4361V27.8927H150.046V14.818H153.021V16.9886H153.072C154.051 15.3373 155.464 14.5116 157.311 14.5116C158.733 14.5116 159.818 14.9755 160.567 15.9033C161.316 16.8226 161.691 18.1548 161.691 19.8998V27.8927Z" fill="white"/><path d="M171.82 27.7523C171.241 28.0417 170.479 28.1864 169.534 28.1864C166.997 28.1864 165.729 26.9692 165.729 24.5347V17.1418H163.546V14.818H165.729V11.7919L168.691 10.9492V14.818H171.82V17.1418H168.691V23.6792C168.691 24.4538 168.832 25.0071 169.113 25.3391C169.394 25.6711 169.862 25.8371 170.517 25.8371C171.019 25.8371 171.454 25.6923 171.82 25.4029V27.7523Z" fill="white"/><path d="M184.017 27.8927H181.144V25.8498H181.093C180.191 27.4161 178.867 28.1992 177.122 28.1992C175.837 28.1992 174.828 27.8502 174.096 27.1522C173.372 26.4542 173.011 25.5306 173.011 24.3815C173.011 21.9129 174.432 20.4744 177.275 20.0658L181.157 19.5167C181.157 17.6526 180.271 16.7205 178.501 16.7205C176.943 16.7205 175.539 17.2568 174.287 18.3293V15.7373C175.666 14.9202 177.258 14.5116 179.063 14.5116C182.365 14.5116 184.017 16.1374 184.017 19.3891V27.8927ZM181.157 21.4703L178.412 21.8533C177.56 21.964 176.918 22.1726 176.484 22.479C176.058 22.7769 175.845 23.3047 175.845 24.0623C175.845 24.6156 176.041 25.071 176.432 25.4285C176.833 25.7775 177.365 25.952 178.028 25.952C178.931 25.952 179.676 25.637 180.263 25.0071C180.859 24.3687 181.157 23.5686 181.157 22.6067V21.4703Z" fill="white"/><path d="M190.226 27.8927H187.251V8.53601H190.226V27.8927Z" fill="white"/></svg>