<svg width="84" height="84" viewBox="0 0 84 84" fill="none" xmlns="http://www.w3.org/2000/svg">
<path d="M42.0014 69.0028L33.22 84L31.2635 66.71L17.1767 76.8175L22.3851 60.2221L5.42693 63.6953L16.8988 50.6654L0 46.9018L15.7492 39.6895L1.83506 29.3404L19.1413 29.1939L10.6164 14.0502L26.487 20.9939L24.8219 3.67129L36.5124 16.5031L42.0014 0L47.4876 16.5031L59.1781 3.67129L57.5157 20.9939L73.3836 14.0502L64.8587 29.1939L82.1649 29.3404L68.2508 39.6895L84 46.9018L67.1039 50.6654L78.5731 63.6953L61.6149 60.2221L66.8233 76.8175L52.7365 66.71L50.78 84L42.0014 69.0028Z" fill="#F0B242"/>
</svg>